<?xml version="1.0" encoding="UTF-8"?>
<svg version="1.1" xmlns="http://www.w3.org/2000/svg" width="1563" height="1563">
<path d="M0 0 C1.90814923 0.26300307 3.81719453 0.51966596 5.72743225 0.76704407 C7.75126935 1.07023769 9.7744732 1.37767992 11.79711914 1.6887207 C12.92640492 1.85903274 14.05569071 2.02934477 15.21919727 2.20481777 C18.99176422 2.77470735 22.76344682 3.35024581 26.53515625 3.92578125 C29.28040631 4.34221358 32.02583751 4.75744574 34.77127075 5.17266846 C39.95264918 5.95672493 45.13378344 6.74236678 50.31466627 7.52969134 C59.81370237 8.97312983 69.3142283 10.40649956 78.81541169 11.83572948 C111.62439133 16.77173895 144.42711761 21.74507953 177.21494007 26.81992054 C194.25200183 29.45646365 211.29232077 32.07130249 228.33474255 34.67296886 C239.80881631 36.42567858 251.27944261 38.19847767 262.74652576 39.99636137 C270.6825285 41.23885218 278.62195112 42.45767885 286.56428337 43.65903699 C291.17294314 44.35693331 295.77940648 45.06498617 300.38205338 45.80158234 C318.24717941 48.65319386 334.84102312 51.22334303 352.79978752 47.6058979 C356.52951672 46.89974632 360.27333411 46.33729362 364.03004456 45.79893494 C364.75429036 45.69504275 365.47853617 45.59115056 366.22472882 45.48411012 C367.74310585 45.26670629 369.26152144 45.04957168 370.77997279 44.83268762 C374.78384966 44.25560587 378.78405069 43.65417435 382.7844696 43.05366516 C384.4744618 42.80043549 386.164456 42.54721927 387.85445213 42.29401588 C389.13717054 42.1017084 389.13717054 42.1017084 390.44580245 41.90551591 C394.94137477 41.23197587 399.43730483 40.56083118 403.93318176 39.889328 C412.55469083 38.60119576 421.17583639 37.3106468 429.79683906 36.01913017 C436.73193946 34.98022724 443.66719298 33.94235181 450.60253906 32.90509033 C494.90926954 26.27821284 539.21365958 19.63702876 583.5 12.875 C585.2965187 12.60075716 587.09303766 12.32651601 588.88955688 12.05227661 C592.32347981 11.52803673 595.75739327 11.00373494 599.19129944 10.47938538 C600.00460283 10.35519793 600.81790623 10.23101048 601.65585518 10.10305977 C603.24504381 9.86039255 604.83423022 9.6177108 606.42341423 9.37501335 C621.21930756 7.11567174 636.0169279 4.86821737 650.82006836 2.65679932 C653.13523801 2.31046196 655.45019156 1.96267589 657.76489258 1.61322021 C660.78795804 1.15716519 663.81178542 0.7065966 666.8359375 0.2578125 C668.12188309 0.06218719 668.12188309 0.06218719 669.43380737 -0.13739014 C670.22183746 -0.25302307 671.00986755 -0.36865601 671.82177734 -0.48779297 C672.82451187 -0.63763138 672.82451187 -0.63763138 673.84750366 -0.79049683 C674.91298935 -0.8942009 674.91298935 -0.8942009 676 -1 C676.863557 -1.15819592 677.72711401 -1.31639183 678.61683941 -1.47938156 C683.94936394 -0.72378221 686.58902314 2.73122695 690.2830658 6.46060181 C691.10152483 7.26335081 691.91998387 8.0660998 692.76324469 8.89317453 C695.03157992 11.12426012 697.28599523 13.36839512 699.53510773 15.6188283 C701.96412013 18.04289596 704.41013211 20.44970792 706.8538208 22.85896301 C712.19396864 28.13056078 717.51163249 33.42446255 722.82518458 38.72284746 C726.14399586 42.03188656 729.46767908 45.33600147 732.79242134 48.63908005 C741.99942926 57.78738739 751.20166769 66.94041566 760.3837347 76.11376381 C761.26512792 76.99431296 761.26512792 76.99431296 762.16432706 77.89265098 C763.35548055 79.08270573 764.54663022 80.27276431 765.73777609 81.46282668 C766.32905852 82.05356068 766.92034094 82.64429467 767.52954102 83.25292969 C768.12154266 83.84438968 768.7135443 84.43584967 769.32348538 85.0452327 C778.91430032 94.62542554 788.53982063 104.16990144 798.18124204 113.69913705 C808.08264492 123.48624714 817.9556735 133.30122986 827.80055243 143.14520299 C833.32754309 148.67044073 838.86576355 154.18324241 844.43513298 159.66579056 C849.1782096 164.33526406 853.89453715 169.0298408 858.57836901 173.75876917 C860.96834735 176.17023916 863.3714408 178.56270712 865.802248 180.93341637 C881.10111076 195.87685379 881.10111076 195.87685379 881.93763638 201.914711 C881.73154049 205.53567547 881.05244413 208.53788549 880 212 C879.71373964 213.98739187 879.4572952 215.97934002 879.23295593 217.97467041 C878.93124439 219.99729016 878.62377203 222.01905692 878.3112793 224.04003906 C878.14096726 225.17120053 877.97065523 226.302362 877.79518223 227.46780109 C877.22672321 231.23454937 876.65049455 235.00006532 876.07421875 238.765625 C875.65751482 241.51073741 875.24243808 244.25609523 874.82733154 247.00144958 C873.92733813 252.94874476 873.02356712 258.89545645 872.1178894 264.84188843 C870.79118607 273.55523201 869.47656187 282.27037284 868.16427052 290.98589694 C863.23836847 323.69410976 858.26271362 356.39408302 853.18007946 389.07833672 C850.5443932 406.02905818 847.9294655 422.98291056 845.32703114 439.93876839 C843.5747006 451.34825378 841.8018981 462.75420509 840.00363863 474.15654272 C838.76118874 482.04563807 837.54236499 489.93816789 836.34096301 497.83361727 C835.64314804 502.41424529 834.93512161 506.99264916 834.19841766 511.5671978 C833.51708935 515.79911379 832.86661404 520.03470681 832.23804915 524.27477026 C832.00738339 525.79571722 831.7663309 527.31514226 831.51265371 528.83242083 C829.50481003 540.90073278 830.58208385 551.79657124 832.49929202 563.83535874 C833.01000092 567.06320912 833.4877296 570.29444612 833.95675945 573.52860165 C835.01474585 580.80346105 836.11094836 588.07232925 837.20849609 595.34130859 C837.62490895 598.10878966 838.04064125 600.87637286 838.45640564 603.64395142 C839.34540019 609.55924622 840.23601298 615.47429544 841.12778854 621.3891716 C842.42249144 629.97654441 843.71467765 638.56429453 845.0063103 647.15212961 C847.11018354 661.13993527 849.21607414 675.12743642 851.32324219 689.11474609 C853.35530064 702.60350786 855.38633324 716.09242345 857.41601562 729.58154297 C857.54084125 730.41112276 857.66566687 731.24070255 857.79427509 732.09542112 C858.29644824 735.43284584 858.79861442 738.7702716 859.30077132 742.10769876 C863.06146369 767.1018677 866.82287278 792.09592911 870.58777674 817.08946403 C871.20910586 821.21465284 871.82982799 825.33993239 872.45001828 829.46529257 C874.1866603 841.01624727 875.92530821 852.56664732 877.71710205 864.10919189 C877.9616625 865.69179758 878.20617039 867.27441139 878.45061684 868.85703468 C878.86834185 871.56071811 879.29264677 874.26305031 879.72142601 876.96503258 C879.98326652 878.65642577 879.98326652 878.65642577 880.25039673 880.38198853 C880.39756449 881.31429102 880.54473225 882.24659351 880.69635963 883.2071476 C880.84666162 884.58960954 880.84666162 884.58960954 881 886 C881.16947427 887.09755301 881.33894854 888.19510601 881.51355839 889.3259182 C880.73202957 894.91710488 877.45408281 897.53744254 873.53266907 901.40332031 C872.7292145 902.22263377 871.92575994 903.04194723 871.09795827 903.88608837 C868.86667141 906.15402155 866.62030165 908.40564048 864.36651266 910.65117335 C861.93858894 913.07766815 859.53084571 915.52405167 857.12030029 917.9677887 C852.39494083 922.75128184 847.65029121 927.51518109 842.89773516 932.27164048 C839.03414137 936.13856125 835.17612787 940.01096215 831.32198143 943.88729858 C820.39168286 954.87924217 809.44682726 965.85638889 798.48303781 976.81492889 C797.89204109 977.40564591 797.30104438 977.99636293 796.69213867 978.60498047 C796.10041637 979.19641661 795.50869406 979.78785275 794.89904078 980.39721119 C785.31182873 989.98157854 775.76000632 999.60037277 766.22371016 1009.23537755 C756.4291564 1019.13050807 746.60870538 1028.99927196 736.76070851 1038.84122276 C731.23322283 1044.36638547 725.71699738 1049.90179936 720.22847939 1055.46569824 C715.55465537 1060.20330002 710.85725267 1064.91585697 706.12772945 1069.59788221 C703.71577815 1071.98698866 701.32136503 1074.38853029 698.94737816 1076.81570625 C696.36876752 1079.44830853 693.75065087 1082.03402903 691.11811829 1084.61254883 C690.38168651 1085.38498554 689.64525474 1086.15742226 688.88650686 1086.95326614 C685.54094227 1090.1490573 683.41419988 1091.89399472 678.70490879 1092.24699271 C675.41009101 1092.01202282 672.2491657 1091.58492706 669 1091 C667.45115744 1090.79780235 665.90170849 1090.60006763 664.35118103 1090.41122437 C662.90779019 1090.19480513 661.46512911 1089.97346937 660.02319336 1089.74755859 C658.80933692 1089.56349473 658.80933692 1089.56349473 657.57095814 1089.37571239 C654.90988218 1088.97109329 652.24989019 1088.55976561 649.58984375 1088.1484375 C647.66667378 1087.85477291 645.74343361 1087.5615677 643.82012939 1087.26878357 C639.69448481 1086.63989895 635.56929086 1086.00816426 631.44442749 1085.37417603 C624.80073564 1084.35323193 618.15597581 1083.3393639 611.51098633 1082.3269043 C609.2226408 1081.97819642 606.93429547 1081.6294873 604.64595032 1081.28077698 C603.50386927 1081.10675417 602.36178822 1080.93273136 601.18509865 1080.75343513 C597.67970114 1080.21908561 594.17439558 1079.68413655 590.66911316 1079.14903259 C575.75587232 1076.87295013 560.84040933 1074.6122173 545.921875 1072.37109375 C544.94778435 1072.22470585 543.9736937 1072.07831795 542.97008514 1071.92749405 C533.04076082 1070.43569264 523.11075626 1068.94858122 513.17908859 1067.47245598 C507.98380053 1066.70026059 502.78873621 1065.92656699 497.59375 1065.15234375 C496.53767799 1064.99503658 495.48160599 1064.83772942 494.3935318 1064.67565536 C479.06403085 1062.38937037 463.74571007 1060.0364189 448.43259716 1057.64335155 C436.22558938 1055.73593453 424.01540753 1053.84971484 411.80321217 1051.97580433 C403.56103251 1050.709958 395.32238641 1049.42450599 387.0872637 1048.11352676 C381.41833933 1047.21285898 375.74600553 1046.33618117 370.07067716 1045.47680241 C366.77894646 1044.97756284 363.49092222 1044.46487389 360.20465088 1043.93022346 C344.94172875 1041.4540614 331.6311262 1040.6736744 316.40557671 1043.40935516 C312.53044189 1044.08143762 308.64513555 1044.66489819 304.7535553 1045.23162842 C303.2376453 1045.45289492 301.7217397 1045.67419166 300.2058382 1045.8955164 C299.03764905 1046.06602912 299.03764905 1046.06602912 297.84586012 1046.23998654 C293.7151037 1046.84725706 289.58711135 1047.47268901 285.45904541 1048.09794617 C284.59885105 1048.22814099 283.73865669 1048.35833581 282.85239583 1048.49247593 C281.07182153 1048.76200362 279.29125614 1049.03159022 277.51069927 1049.30123305 C272.82435133 1050.01037009 268.13758799 1050.71675155 263.4508667 1051.42341614 C255.43460784 1052.63241953 247.41857091 1053.84288449 239.40267944 1055.05432129 C226.87347813 1056.9477403 214.34367426 1058.83715221 201.8137207 1060.72558594 C200.77087587 1060.88276148 199.72803103 1061.03993701 198.65358484 1061.20187545 C193.37730701 1061.99709812 188.10102177 1062.79227154 182.82473183 1063.58741379 C177.53212213 1064.38503323 172.23954119 1065.18284329 166.94696969 1065.98071611 C131.90015706 1071.264111 96.85261335 1076.54261002 61.79997349 1081.78722668 C60.32621281 1082.00773548 58.85245252 1082.2282469 57.37869263 1082.44876099 C56.65714058 1082.55672424 55.93558854 1082.66468749 55.19217128 1082.77592236 C50.13875343 1083.5322571 45.08564835 1084.29065803 40.03268433 1085.05001831 C33.33479896 1086.05657467 26.63637833 1087.05948197 19.93753815 1088.05966759 C17.51930484 1088.42130689 15.10125402 1088.78416892 12.68340302 1089.14835548 C9.42834686 1089.63842422 6.17265393 1090.12401231 2.91674805 1090.60839844 C1.97350646 1090.7514891 1.03026487 1090.89457975 0.05844021 1091.04200649 C-0.80669665 1091.16975995 -1.67183352 1091.29751341 -2.56318665 1091.42913818 C-3.3051595 1091.54025814 -4.04713236 1091.6513781 -4.81158924 1091.76586533 C-11.30441321 1092.4605225 -11.30441321 1092.4605225 -13.90569967 1090.73830616 C-14.81580678 1089.84161333 -14.81580678 1089.84161333 -15.74429989 1088.9268055 C-16.80610152 1087.89843769 -16.80610152 1087.89843769 -17.88935369 1086.84929478 C-18.65434338 1086.08338328 -19.41933308 1085.31747177 -20.20750427 1084.52835083 C-21.029898 1083.72434054 -21.85229173 1082.92033026 -22.69960648 1082.09195602 C-24.98169161 1079.85548391 -27.25223543 1077.60800412 -29.51824415 1075.3552649 C-31.96413511 1072.92890158 -34.42407669 1070.51685122 -36.88194275 1068.10263062 C-42.81613528 1062.26723594 -48.72611754 1056.40760965 -54.63330922 1050.5449031 C-57.41690537 1047.78322954 -60.20294445 1045.02402275 -62.98866463 1042.26449203 C-72.25084938 1033.08737359 -81.50672574 1023.90396156 -90.74456692 1014.70233345 C-93.14175746 1012.31469212 -95.53897418 1009.92707708 -97.9362793 1007.53955078 C-98.8300094 1006.64944873 -98.8300094 1006.64944873 -99.74179465 1005.74136482 C-109.38923396 996.13540388 -119.07847557 986.57280088 -128.78606474 977.02766873 C-138.75655881 967.22267908 -148.68886579 957.38029189 -158.58493763 947.50018394 C-164.1405053 941.95542973 -169.71130682 936.4281764 -175.32510185 930.94232559 C-180.10763493 926.2685432 -184.85435499 921.56176443 -189.55852699 916.80906655 C-191.95835394 914.38656493 -194.37114695 911.98283302 -196.83061981 909.62078094 C-212.21494363 894.74831566 -212.21494363 894.74831566 -212.77149868 887.53377533 C-212.58926134 883.67574329 -211.68558675 880.08962355 -210.62584245 876.38811183 C-209.50068953 872.09471339 -209.05705929 867.69692947 -208.48027039 863.30279541 C-208.19505194 861.36287116 -207.90514925 859.42363079 -207.61096191 857.48504639 C-207.38329636 855.97854649 -207.38329636 855.97854649 -207.15103149 854.44161224 C-206.99379608 853.40159309 -206.83656067 852.36157394 -206.67456055 851.29003906 C-206.34039022 849.06246252 -206.00652167 846.83484069 -205.67292786 844.60717773 C-204.77032577 838.58566625 -203.86350066 832.5647977 -202.95587516 826.54404163 C-201.990583 820.13582787 -201.02919724 813.72702796 -200.06733704 807.31829834 C-198.44125807 796.48757705 -196.81273436 785.6572259 -195.18237305 774.82714844 C-193.03308218 760.5499011 -190.88752681 746.27209498 -188.74326485 731.9940916 C-188.04294356 727.33101782 -187.34234104 722.66798636 -186.64155769 718.00498199 C-186.54275808 717.34756808 -186.44395846 716.69015416 -186.34216491 716.0128186 C-185.94420925 713.36485595 -185.54624551 710.71689452 -185.14826442 708.06893569 C-184.06324425 700.84967618 -182.9787231 693.63034237 -181.895504 686.41081238 C-178.10286575 661.13333575 -174.30264738 635.85754446 -170.38628185 610.59889841 C-169.4460331 604.52775867 -168.51186242 598.45567971 -167.57742649 592.38364291 C-166.72617274 586.85895214 -165.86336131 581.33623746 -164.99103117 575.81483746 C-164.46796603 572.48737302 -163.955585 569.15832824 -163.44614387 565.82875347 C-163.21323029 564.32167332 -162.97581409 562.81528013 -162.73326898 561.30972004 C-162.40438733 559.26535054 -162.09202176 557.21906368 -161.78327942 555.17156982 C-161.60648053 554.04297924 -161.42968164 552.91438866 -161.24752522 551.75159836 C-160.65911729 542.83343535 -162.37224566 533.88931532 -163.70559692 525.09111023 C-163.87710514 523.94218806 -164.04861336 522.79326588 -164.22531879 521.60952789 C-164.69752473 518.45058827 -165.17254289 515.29208703 -165.64880085 512.13375628 C-166.16384069 508.71347894 -166.67518331 505.29264859 -167.18699646 501.87188721 C-168.18992342 495.17260219 -169.19619658 488.47382393 -170.20357104 481.77520641 C-171.38340254 473.92880365 -172.5596885 466.08187057 -173.7358049 458.23491023 C-175.84218064 444.18202522 -177.95145823 430.12957735 -180.0625 416.07739258 C-182.09514086 402.54705076 -184.12622179 389.01647625 -186.15527344 375.4855957 C-186.2794937 374.65722648 -186.40371397 373.82885725 -186.53169848 372.97538593 C-187.03154178 369.64212301 -187.53137864 366.30885912 -188.03120584 362.97559379 C-190.21811876 348.39165137 -192.40618745 333.8078823 -194.59456605 319.22415975 C-194.82765205 317.67083032 -195.06073346 316.1175002 -195.29381019 314.56416938 C-196.63436147 305.6301521 -197.97529468 296.69619237 -199.31729097 287.76239203 C-199.84446815 284.25291964 -200.37150476 280.74342631 -200.89814782 277.23387372 C-202.97129011 263.41926783 -205.05421688 249.60631868 -207.18011475 235.79971313 C-207.34844421 234.70412946 -207.51677367 233.60854579 -207.69020402 232.47976261 C-208.46334323 227.44791364 -209.23967179 222.41661393 -210.02348518 217.38641644 C-210.2898913 215.65740002 -210.55615118 213.92836107 -210.82223511 212.19929504 C-210.94338015 211.43159448 -211.0645252 210.66389391 -211.18934131 209.87292969 C-212.69207473 200.03901346 -212.69207473 200.03901346 -210.73140216 197.095451 C-210.1303545 196.489255 -209.52930685 195.883059 -208.91004562 195.25849342 C-208.22076689 194.55124237 -207.53148817 193.84399131 -206.8213222 193.1153084 C-206.05131798 192.35100083 -205.28131376 191.58669326 -204.48797607 190.79922485 C-203.67973239 189.97753669 -202.87148871 189.15584853 -202.03875279 188.30926073 C-199.79063912 186.02911097 -197.53155991 183.7605223 -195.26731062 181.4964149 C-192.82871577 179.05267536 -190.40447803 176.59476165 -187.97821045 174.13879395 C-182.66897172 168.77025254 -177.34106515 163.42049712 -172.00936031 158.07428026 C-168.68023721 154.73588225 -165.35513547 151.39349907 -162.0308609 148.0502739 C-152.82612736 138.79421168 -143.61729831 129.54227779 -134.39146042 120.30724525 C-133.50570516 119.42059794 -133.50570516 119.42059794 -132.60205586 118.51603856 C-131.40494207 117.31775082 -130.20782601 116.11946534 -129.01070771 114.92118211 C-128.41646127 114.32634729 -127.82221484 113.73151246 -127.20996094 113.11865234 C-126.61498571 112.52309459 -126.02001048 111.92753683 -125.4070057 111.31393187 C-115.76816961 101.6640657 -106.15993483 91.98434258 -96.56475195 82.29108806 C-86.7128357 72.33928791 -76.8367548 62.41202265 -66.93565297 52.50915086 C-61.37713369 46.94854576 -55.82939137 41.37806949 -50.30794525 35.7806282 C-45.60573007 31.01397657 -40.8817472 26.27031672 -36.12805828 21.55497439 C-33.70366795 19.1488297 -31.29092897 16.73346124 -28.9055481 14.28858566 C-26.31130622 11.64089796 -23.68015431 9.03640147 -21.03582764 6.43887329 C-19.92097429 5.27233544 -19.92097429 5.27233544 -18.78359866 4.08223116 C-12.65543336 -1.79958069 -8.0905064 -1.56687343 0 0 Z M-28.3203125 165.859375 C-28.96072479 166.47782288 -29.60113708 167.09627075 -30.26095581 167.73345947 C-31.58796639 169.03968228 -32.89298783 170.36861348 -34.17529297 171.71875 C-36.12494656 173.74994432 -38.1554667 175.65899227 -40.21484375 177.578125 C-41.50613509 178.87412433 -42.79151474 180.17604634 -44.0703125 181.484375 C-44.6700589 182.03736267 -45.2698053 182.59035034 -45.88772583 183.16009521 C-50.53064935 188.28729761 -51.70285986 194.92703233 -51.81639767 201.65525818 C-50.69093331 214.83241567 -38.40749979 223.81564663 -29.30009818 232.29967022 C-26.38276088 235.04176125 -23.5283823 237.84782313 -20.66792297 240.64898682 C-14.01605612 247.1429399 -7.29122551 253.55822816 -0.55799866 259.96759796 C8.0088961 268.1310097 16.53656558 276.33447755 25.00734013 284.59759641 C28.40627375 287.90850157 31.83621905 291.18207836 35.29620898 294.42907763 C37.45171658 296.46417919 39.57942946 298.52673193 41.70132828 300.59679604 C43.14227167 301.98605107 44.61567519 303.34139875 46.09022522 304.69493103 C52.84510857 311.3642319 54.66334533 317.52710559 55.72199976 326.7215898 C56.11412098 329.93530283 56.65362827 333.11983639 57.18410319 336.31316149 C57.94465326 340.91521057 58.65170547 345.52570415 59.36987305 350.13452148 C59.69524576 352.21095184 60.0208129 354.28735173 60.34655762 356.36372375 C61.22278209 361.95372809 62.09580879 367.54422694 62.96784186 373.1348865 C63.51363699 376.63338949 64.06004236 380.13179663 64.60663795 383.63017464 C66.51565018 395.84929552 68.42171756 408.06887219 70.32543945 420.28881836 C72.09715931 431.66084334 73.87591913 443.03175265 75.65779275 454.40219063 C77.19134636 464.19035456 78.71963935 473.97933073 80.24392349 483.76894242 C81.15275348 489.60512584 82.06376708 495.44094796 82.98023033 501.27593803 C83.84072319 506.75557215 84.69466951 512.23618705 85.54363251 517.71761894 C85.85568824 519.72508494 86.17007147 521.73219076 86.48698616 523.73889542 C86.92014204 526.48399767 87.34477944 529.23029137 87.76737976 531.97703552 C87.8937347 532.76478707 88.02008963 533.55253862 88.1502735 534.36416143 C89.31683718 542.06409229 89.28218707 549.32585853 88.07350159 557.03196716 C87.97367932 557.68068741 87.87385705 558.32940766 87.77100986 558.9977861 C87.4391782 561.14338669 87.09767616 563.28732689 86.75610352 565.43139648 C86.51396289 566.9838255 86.27242811 568.53634911 86.03144836 570.08895874 C85.37582475 574.30183844 84.71176952 578.51335043 84.04622769 582.72467303 C83.34075276 587.19840305 82.64322463 591.67337214 81.94480896 596.14820862 C80.61164696 604.68221396 79.27156588 613.21511757 77.92892927 621.74763685 C76.14491951 633.08728743 74.37087361 644.42849517 72.59652209 655.76966023 C71.01780594 665.85977646 69.43694599 675.94954307 67.8487854 686.03817749 C65.38541599 701.69374109 62.93176268 717.35003377 60.57350218 733.02182519 C60.25509832 735.13528132 59.93531821 737.24852391 59.61495495 739.36168385 C59.51280943 740.03553456 59.41066392 740.70938527 59.30542308 741.40365571 C59.20503126 742.06580592 59.10463944 742.72795614 59.00120544 743.41017151 C58.24684358 748.386652 57.50604637 753.36488157 56.77333069 758.34458923 C56.44442098 760.5189553 56.11498442 762.69324176 55.78491211 764.86743164 C55.5775068 766.31901389 55.5775068 766.31901389 55.36591148 767.79992104 C54.20026862 775.34391201 51.82206646 779.4384536 46.36425781 784.84692383 C45.9068924 785.30297501 45.44952698 785.75902618 44.978302 786.22889709 C43.47446756 787.72627434 41.96377757 789.21653572 40.453125 790.70703125 C39.39749848 791.7563773 38.34239215 792.80624689 37.28778076 793.85661316 C34.5130975 796.61802157 31.73290635 799.37381086 28.9510498 802.12799072 C24.51249743 806.52338387 20.08056058 810.92541859 15.65206146 815.33093834 C14.11529662 816.85760391 12.57509592 818.38073592 11.03448486 819.90351868 C7.05461691 823.84985195 3.11110592 827.78469557 -0.52075195 832.05810547 C-4.44427403 836.64105188 -8.84686259 840.67850143 -13.25912285 844.78411293 C-16.39040051 847.71470149 -19.47562543 850.69395011 -22.5678854 853.66558552 C-25.26625819 856.25364631 -27.97933027 858.82159226 -30.73120117 861.3527832 C-44.83722432 873.40465282 -44.83722432 873.40465282 -52.24345398 889.59140015 C-52.37138968 898.56602351 -48.22697753 905.04958811 -42.19075012 911.39326477 C-40.86592448 912.69449803 -39.52578888 913.9803129 -38.17138672 915.25073242 C-36.12030212 917.19194623 -34.18751184 919.21341448 -32.24609375 921.26367188 C-30.94337111 922.55024291 -29.63493813 923.83106271 -28.3203125 925.10546875 C-27.47534714 926.00038277 -27.47534714 926.00038277 -26.61331177 926.91337585 C-21.84804326 931.20179718 -15.88997363 932.70097763 -9.59146118 932.82213306 C2.28059054 931.69466873 10.48593317 920.21697842 18.06316757 911.92301559 C21.2856685 908.39596466 24.58576501 904.94827269 27.90139771 901.50894165 C36.72115297 892.33654634 45.44260303 883.07270748 54.10527813 873.75190413 C59.80021381 867.62478899 65.53912744 861.54650344 71.36545289 855.54395831 C74.1191587 852.70105826 76.83686557 849.83787148 79.48351669 846.89475632 C94.94698501 829.73836367 107.56300159 823.81724532 130.51049453 821.73877716 C139.33179589 820.93704707 148.02234147 819.48013043 156.7560178 818.02814674 C161.54015926 817.24038223 166.33087071 816.49489247 171.1212616 815.74624634 C173.11045797 815.4341607 175.09964125 815.12199165 177.08881187 814.80974197 C178.09048448 814.65266911 179.09215709 814.49559625 180.12418342 814.3337636 C183.24418692 813.84451097 186.36413823 813.35492655 189.48407936 812.86527634 C199.29476951 811.32577871 209.10570943 809.78788592 218.91698617 808.2521311 C230.16296629 806.49175195 241.40801527 804.72556515 252.65234631 802.9546839 C261.42181288 801.57395044 270.19209495 800.1984798 278.96300822 798.82696664 C284.17292737 798.01216021 289.38247393 797.19513048 294.59116173 796.37248611 C299.46368469 795.60306392 304.33718743 794.84018332 309.21151543 794.08228302 C310.99324387 793.80409921 312.77460996 793.52358257 314.5555687 793.24051285 C316.99306241 792.85346283 319.43174547 792.47499193 321.87089539 792.09854126 C322.91533067 791.92958766 322.91533067 791.92958766 323.98086566 791.75722086 C332.35609669 790.48679361 340.21795059 790.98067632 348.55255127 792.3152771 C349.47142899 792.4567903 350.39030672 792.5983035 351.33702922 792.74410498 C354.3940292 793.21662036 357.44941071 793.69886365 360.50488281 794.18115234 C362.70487744 794.52330187 364.90496336 794.86486487 367.10513306 795.20588684 C373.06443228 796.13142798 379.02234973 797.06559322 384.98000431 798.0016551 C391.21767952 798.98055537 397.45642337 799.95260109 403.69500732 800.9256897 C414.83686754 802.66479731 425.97765503 804.41068038 437.11801776 806.15934666 C447.21575126 807.74417214 457.31450961 809.32231976 467.4140625 810.89550781 C480.4060355 812.91924865 493.39704834 814.94905049 506.38729095 816.98387527 C511.34536369 817.76038571 516.30380222 818.53449729 521.26255035 819.30668259 C527.0976174 820.21562421 532.93173914 821.13040719 538.76517868 822.04973412 C540.90746258 822.38637902 543.05006633 822.72099563 545.19300461 823.05344963 C548.11469246 823.50705939 551.03513847 823.96796049 553.9553833 824.43075562 C554.80625243 824.56111312 555.65712157 824.69147063 556.53377461 824.82577837 C563.19566301 825.8946626 567.58036648 827.16883004 572.39042664 832.15078735 C573.23794495 833.02019455 574.08546326 833.88960175 574.95866394 834.78535461 C575.88486636 835.75087869 576.81099613 836.71647246 577.73706055 837.68212891 C578.72256266 838.69796168 579.70888178 839.71300238 580.69595337 840.72731018 C582.8187345 842.91034725 584.93745701 845.09722216 587.05365562 847.28664017 C590.40887942 850.75429877 593.78382579 854.20229786 597.16377258 857.64584351 C597.73510648 858.22808957 598.30644038 858.81033563 598.89508742 859.41022551 C600.06341545 860.60077137 601.23179416 861.79126749 602.40022242 862.98171496 C610.26462816 870.99573652 618.11599159 879.02133882 625.91040039 887.10351562 C631.17275737 892.55985653 636.46694443 897.98302925 641.79936439 903.37094629 C644.61615518 906.21962992 647.41451974 909.08210777 650.17450523 911.98595047 C662.34195597 925.95695163 662.34195597 925.95695163 678.64028835 932.83177853 C685.05091134 932.71776248 690.95735361 931.10254666 695.76577759 926.70960999 C696.35096161 926.08485275 696.93614563 925.46009552 697.5390625 924.81640625 C698.20167084 924.16864731 698.86427917 923.52088837 699.54696655 922.85350037 C700.92095103 921.48730163 702.27301194 920.09870888 703.60253906 918.68920898 C705.62793918 916.55940932 707.73080739 914.53979111 709.859375 912.51367188 C716.14150312 906.27752989 721.38080512 900.46298307 721.62109375 891.25 C721.24731384 883.317091 717.49873777 878.56382328 711.81054688 873.36523438 C710.68752681 872.387794 709.56316855 871.41188908 708.4375 870.4375 C706.78961581 868.93056446 705.15386783 867.4111557 703.51783752 865.89137268 C702.029198 864.52156623 700.5142844 863.18047047 698.99780273 861.84155273 C696.74290905 859.78551815 694.75620829 857.60494474 692.77815247 855.28211975 C689.22326206 851.19198597 685.4528529 847.40207427 681.55175781 843.64453125 C680.08556429 842.22126637 678.61961242 840.7977525 677.15386963 839.37402344 C676.00468426 838.26021301 676.00468426 838.26021301 674.83228302 837.12390137 C669.87664907 832.30940019 664.95479494 827.46030497 660.02646255 822.6178894 C655.71033646 818.3808399 651.38317798 814.15632867 647.03076172 809.95654297 C642.79880828 805.8716628 638.60005649 801.75512044 634.42134857 797.61581421 C632.83334033 796.05414997 631.23387698 794.50403872 629.62253571 792.96646118 C627.36024345 790.80435261 625.14289604 788.60377838 622.93066406 786.390625 C622.26984329 785.77811386 621.60902252 785.16560272 620.92817688 784.53453064 C615.26560688 778.71904364 614.38836518 772.08297563 613.32483149 764.32083869 C612.99126023 761.93755659 612.61252291 759.56545661 612.22028732 757.19115639 C611.32160204 751.74443391 610.46721371 746.29120108 609.61425781 740.8371582 C609.28723845 738.75736953 608.96004951 736.67760751 608.63270569 734.59786987 C607.56898091 727.83277697 606.51060228 721.06685316 605.453125 714.30078125 C605.27240794 713.14495411 605.09169088 711.98912696 604.90549755 710.79827476 C603.19866155 699.88070802 601.49379307 688.96283581 599.79379654 678.04420185 C597.62808054 664.13515905 595.4524557 650.22774679 593.26335835 636.32236415 C591.71924477 626.50865747 590.18645709 616.69322175 588.66198802 606.87644452 C587.75333386 601.02717441 586.83979268 595.17876855 585.91403961 589.33217812 C585.04419693 583.83714291 584.18846421 578.34009023 583.34325981 572.84121323 C583.03194033 570.83176922 582.71563698 568.82308958 582.39380836 566.8153019 C580.71133291 556.29983205 579.41599257 546.62386403 581 536 C581.21396213 534.46589746 581.42757166 532.93174572 581.64091682 531.39755726 C582.44483697 525.75714785 583.32376691 520.12908928 584.20288086 514.5 C584.53516162 512.34864989 584.86702372 510.19723508 585.19850159 508.04576111 C586.09470289 502.2377986 586.99716039 496.43082484 587.90111995 490.6240654 C588.65611443 485.77035981 589.40799003 480.9161732 590.1598683 476.06198406 C591.93275811 464.61630961 593.71069805 453.17142766 595.49194336 441.72705078 C597.32936294 429.92125019 599.15879173 418.11423115 600.98423856 406.30657387 C602.55359795 396.1570203 604.12758615 386.00819222 605.70537287 375.8599453 C606.64697349 369.8034285 607.5868753 363.74666079 608.52244377 357.68920898 C609.40108352 352.00184363 610.28550711 346.31540765 611.17442894 340.62964058 C611.49980066 338.54217972 611.82313106 336.45439951 612.14428329 334.36628532 C612.58249031 331.51925802 613.02802336 328.67347181 613.47544861 325.82788086 C613.60123305 324.99919495 613.72701749 324.17050903 613.85661358 323.31671143 C614.90848893 316.71186291 616.21364296 312.37636681 621.15078735 307.60957336 C622.02019455 306.76205505 622.88960175 305.91453674 623.78535461 305.04133606 C624.75087869 304.11513364 625.71647246 303.18900387 626.68212891 302.26293945 C627.69796168 301.27743734 628.71300238 300.29111822 629.72731018 299.30404663 C631.91034725 297.1812655 634.09722216 295.06254299 636.28664017 292.94634438 C639.75429877 289.59112058 643.20229786 286.21617421 646.64584351 282.83622742 C647.22808957 282.26489352 647.81033563 281.69355962 648.41022551 281.10491258 C649.60077137 279.93658455 650.79126749 278.76820584 651.98171496 277.59977758 C659.99573652 269.73537184 668.02133882 261.88400841 676.10351562 254.08959961 C681.55985653 248.82724263 686.98302925 243.53305557 692.37094629 238.20063561 C695.21962992 235.38384482 698.08210777 232.58548026 700.98595047 229.82549477 C714.9572723 217.65831284 714.9572723 217.65831284 721.82998657 201.35971165 C721.71504778 194.95971944 720.10693635 189.04683083 715.73526001 184.23422241 C715.11363983 183.64903839 714.49201965 183.06385437 713.8515625 182.4609375 C713.20617523 181.79832916 712.56078796 181.13572083 711.89584351 180.45303345 C710.53394528 179.07901241 709.14954456 177.7269497 707.74414062 176.39746094 C705.62317997 174.373263 703.61609312 172.27018738 701.6015625 170.140625 C700.25312808 168.80408765 698.89911903 167.47314641 697.5390625 166.1484375 C696.95387848 165.52681732 696.36869446 164.90519714 695.76577759 164.26473999 C690.93795638 159.87924465 684.99913192 158.28053991 678.58028412 158.16489792 C666.71910455 159.31261567 658.51063219 170.78681775 650.93683243 179.07698441 C647.7143315 182.60403534 644.41423499 186.05172731 641.09860229 189.49105835 C632.27884703 198.66345366 623.55739697 207.92729252 614.89472187 217.24809587 C609.19978619 223.37521101 603.46087256 229.45349656 597.63454711 235.45604169 C594.8808413 238.29894174 592.16313443 241.16212852 589.51648331 244.10524368 C573.16661003 262.24835665 559.36448754 267.60688279 535.1479454 269.62343597 C529.48898747 270.10431733 523.92475542 271.06725739 518.33203125 272.03540039 C516.42221476 272.34037456 514.51182682 272.6417923 512.60087585 272.9395752 C511.66015417 273.08717789 510.71943249 273.23478058 509.75020409 273.38685608 C508.29604056 273.61495216 508.29604056 273.61495216 506.8125 273.84765625 C504.67000964 274.18497831 502.52753898 274.52242556 500.38508606 274.85998535 C493.59043365 275.92989095 486.79523933 276.99632959 480 278.0625 C477.6416286 278.43274762 475.28326071 278.80301759 472.92489624 279.17330933 C460.93646294 281.05538392 448.94764341 282.93497949 436.95849609 284.8125 C426.90168855 286.38741924 416.84574361 287.96774374 406.79029655 289.55132389 C398.88147339 290.7964662 390.97186357 292.03651693 383.06155586 293.27219296 C378.51080345 293.9831664 373.96041447 294.69628508 369.41088867 295.41506958 C365.2016705 296.07996424 360.99148999 296.73837536 356.78046227 297.39170837 C355.26026168 297.62869127 353.74041822 297.86797937 352.22098732 298.10984802 C350.15452983 298.43843366 348.08691095 298.75843572 346.01879883 299.07641602 C344.2990258 299.3459182 344.2990258 299.3459182 342.54450989 299.62086487 C335.09383421 300.41781931 328.0483938 299.90195823 320.6709137 298.72268677 C319.77598156 298.58525712 318.88104943 298.44782747 317.95899814 298.30623329 C314.9827736 297.84750031 312.00815756 297.37908838 309.03344727 296.91064453 C306.8908267 296.57833894 304.74811378 296.24662834 302.60531616 295.91546631 C296.80066747 295.01659631 290.99737054 294.10926276 285.19429898 293.20027399 C279.11250807 292.24898287 273.02956628 291.30510711 266.94676208 290.36032104 C256.73161586 288.77260589 246.51727682 287.1797834 236.3034668 285.58349609 C223.2090314 283.53702976 210.11331574 281.49888152 197.01716709 279.46341133 C185.74027816 277.71064023 174.4639725 275.95412757 163.18776584 274.19697332 C159.57193815 273.6336743 155.95603398 273.07086827 152.34012032 272.50812149 C146.64919385 271.62218676 140.95863647 270.73391631 135.26835251 269.84386444 C133.18439937 269.51822601 131.10033366 269.19330708 129.01614571 268.86917496 C126.1624677 268.42522674 123.30922271 267.97859015 120.45606995 267.53128052 C119.23079467 267.34158068 119.23079467 267.34158068 117.98076636 267.14804852 C113.83179378 266.49455975 109.69622848 265.78338621 105.56900215 265.00375366 C104.75590462 264.8504081 103.94280709 264.69706253 103.10507023 264.53907013 C100.24827066 263.80749581 98.62820176 262.6014904 96.5793457 260.50341797 C95.86192703 259.78862274 95.14450836 259.07382751 94.40534973 258.33737183 C93.66959213 257.563461 92.93383453 256.78955017 92.17578125 255.9921875 C91.38527878 255.19273712 90.59477631 254.39328674 89.78031921 253.5696106 C87.27161342 251.02297794 84.79237191 248.44968558 82.3125 245.875 C80.63657935 244.16748877 78.95886009 242.46174091 77.27929688 240.7578125 C65.32483502 228.57847563 65.32483502 228.57847563 60.78320312 223.30517578 C52.36670357 213.5892358 43.25807459 204.45739109 34.27976513 195.26501465 C30.8874237 191.78988389 27.51453326 188.29963882 24.1809082 184.76806641 C20.93195304 181.32728399 17.63980307 177.93369112 14.31395912 174.56723022 C13.06499535 173.28780644 11.83166133 171.99290725 10.61574364 170.68203735 C4.78440694 164.4158499 -0.12535953 159.48383206 -8.99707508 158.8488121 C-16.82506132 158.83539718 -22.77405732 160.01614951 -28.3203125 165.859375 Z " fill="#FFFFFF" transform="translate(447,236)"/>
</svg>
